<?xml version="1.0" standalone="no"?>
<!DOCTYPE svg PUBLIC "-//W3C//DTD SVG 20010904//EN"
 "http://www.w3.org/TR/2001/REC-SVG-20010904/DTD/svg10.dtd">
<svg version="1.0" xmlns="http://www.w3.org/2000/svg"
 width="300.000000pt" height="300.000000pt" viewBox="0 0 300.000000 300.000000"
 preserveAspectRatio="xMidYMid meet">
<metadata>
Created by potrace 1.11, written by Peter Selinger 2001-2013
</metadata>
<g transform="translate(0.000000,300.000000) scale(0.100000,-0.100000)"
fill="#000000" stroke="none">
<path d="M0 1500 l0 -1500 1500 0 1500 0 0 1500 0 1500 -1500 0 -1500 0 0
-1500z m872 571 c75 -29 149 -96 179 -163 32 -73 32 -181 0 -255 -27 -61 -93
-126 -159 -156 -39 -18 -71 -22 -179 -25 l-133 -4 0 -184 0 -184 -95 0 -95 0
0 501 0 502 213 -5 c187 -5 219 -8 269 -27z m740 -298 c70 -32 141 -103 174
-176 26 -55 29 -73 29 -157 0 -83 -4 -103 -28 -156 -63 -136 -192 -211 -349
-202 -136 7 -249 82 -305 202 -24 53 -28 73 -28 156 0 83 3 102 28 155 44 93
110 155 201 187 71 25 213 20 278 -9z m830 -1 c100 -49 167 -143 189 -266 39
-209 -103 -411 -298 -424 -79 -5 -150 18 -195 63 -18 19 -35 35 -38 35 -3 0
-4 -85 -2 -190 l3 -190 -91 0 -90 0 0 490 0 490 85 0 85 0 0 -40 c0 -46 12
-51 36 -15 8 13 39 36 67 50 45 23 62 26 127 23 53 -2 89 -10 122 -26z"/>
<path d="M580 1780 l0 -143 109 5 c121 5 148 15 181 71 38 61 18 146 -43 182
-25 15 -56 20 -139 23 l-108 4 0 -142z"/>
<path d="M1369 1607 c-141 -95 -102 -332 59 -354 89 -12 158 24 193 102 44 95
5 215 -83 261 -43 22 -129 18 -169 -9z"/>
<path d="M2210 1623 c-139 -57 -154 -277 -25 -350 124 -70 270 20 269 167 0
112 -64 182 -169 187 -33 1 -67 0 -75 -4z"/>
</g>
</svg>
